<svg width="171" height="171" viewBox="0 0 171 171" fill="none" xmlns="http://www.w3.org/2000/svg">
<g clip-path="url(#clip0_101_2)">
<path d="M153.224 128.847L138.633 146.457L148.173 154.362L162.764 136.752L153.224 128.847Z" fill="#F26522"/>
<path d="M152.3 144.31L152.15 144.49C152.14 144.51 152.12 144.51 152.11 144.51C152.09 144.51 152.08 144.5 152.08 144.48L151.48 142.97L150.01 142.71C149.99 142.71 149.98 142.7 149.97 142.68C149.97 142.66 149.97 142.65 149.98 142.63L150.12 142.46C150.15 142.42 150.19 142.41 150.23 142.42L151.46 142.66L151.47 142.65L151 141.5C150.98 141.46 150.99 141.42 151.01 141.38L151.16 141.2C151.17 141.18 151.19 141.18 151.2 141.18C151.21 141.18 151.23 141.19 151.23 141.21L151.75 142.61L153.35 142.93C153.37 142.93 153.38 142.94 153.39 142.95C153.4 142.96 153.39 142.98 153.38 143L153.23 143.18C153.2 143.21 153.17 143.22 153.13 143.21L151.8 142.94L151.79 142.95L152.31 144.2C152.33 144.25 152.33 144.28 152.3 144.31Z" fill="white"/>
<path d="M154.65 143.02L154.52 143.17C154.49 143.2 154.46 143.2 154.43 143.18L152.02 141.18C151.99 141.15 151.99 141.12 152.01 141.09L152.14 140.94C152.17 140.91 152.2 140.91 152.23 140.93L152.36 141.04L152.37 141.03C152.3 140.87 152.33 140.71 152.48 140.53L152.65 140.32C152.78 140.16 152.92 140.08 153.08 140.07C153.24 140.06 153.4 140.12 153.56 140.25L154.29 140.86C154.45 140.99 154.54 141.14 154.56 141.3C154.58 141.46 154.52 141.62 154.39 141.77L154.22 141.98C154.07 142.16 153.92 142.22 153.75 142.18L153.74 142.19L154.63 142.93C154.67 142.96 154.68 142.99 154.65 143.02ZM153.98 141.85L154.15 141.65C154.31 141.46 154.29 141.28 154.09 141.11L153.38 140.52C153.18 140.36 153 140.37 152.84 140.56L152.67 140.76C152.58 140.86 152.55 140.96 152.56 141.07C152.57 141.17 152.62 141.26 152.73 141.35L153.41 141.91C153.51 141.99 153.61 142.03 153.71 142.02C153.8 142 153.89 141.95 153.98 141.85Z" fill="white"/>
<path d="M153.15 139.14L152.83 138.87C152.8 138.84 152.79 138.82 152.82 138.79L152.95 138.63C152.98 138.6 153.01 138.6 153.04 138.62L153.36 138.89C153.39 138.92 153.39 138.95 153.37 138.98L153.24 139.14C153.21 139.16 153.18 139.17 153.15 139.14ZM155.14 140.79L153.48 139.42C153.45 139.39 153.44 139.37 153.47 139.34L153.6 139.18C153.63 139.15 153.66 139.15 153.69 139.17L155.35 140.54C155.38 140.57 155.38 140.6 155.36 140.63L155.23 140.78C155.2 140.81 155.17 140.82 155.14 140.79Z" fill="white"/>
<path d="M156.03 139.82L155.9 139.97C155.87 140 155.84 140 155.81 139.98L154.15 138.61C154.12 138.58 154.12 138.55 154.14 138.52L154.27 138.37C154.3 138.34 154.33 138.34 154.36 138.36L154.5 138.47L154.51 138.46C154.48 138.4 154.47 138.32 154.49 138.22C154.51 138.13 154.55 138.03 154.62 137.95L154.73 137.82C154.75 137.79 154.78 137.79 154.82 137.82L154.95 137.93C154.97 137.94 154.98 137.96 154.98 137.97C154.98 137.98 154.98 138 154.96 138.01L154.81 138.2C154.72 138.3 154.69 138.41 154.71 138.51C154.73 138.62 154.79 138.71 154.9 138.8L156.04 139.74C156.05 139.75 156.05 139.78 156.03 139.82Z" fill="white"/>
<path d="M154.81 137.13L154.49 136.86C154.46 136.83 154.45 136.81 154.48 136.78L154.61 136.62C154.64 136.59 154.67 136.59 154.7 136.61L155.02 136.88C155.05 136.91 155.05 136.94 155.03 136.97L154.9 137.13C154.87 137.16 154.84 137.16 154.81 137.13ZM156.8 138.78L155.14 137.41C155.11 137.38 155.1 137.36 155.13 137.33L155.26 137.17C155.29 137.14 155.32 137.14 155.35 137.16L157.01 138.53C157.04 138.56 157.04 138.59 157.02 138.62L156.89 138.77C156.86 138.81 156.83 138.81 156.8 138.78Z" fill="white"/>
<path d="M156.04 136.68L155.88 136.87C155.85 136.9 155.83 136.91 155.8 136.88L155.67 136.77C155.64 136.74 155.64 136.71 155.66 136.68L155.82 136.49C155.84 136.47 155.84 136.45 155.82 136.43L155.52 136.19C155.49 136.16 155.49 136.13 155.51 136.1L155.64 135.95C155.66 135.92 155.69 135.92 155.73 135.95L156.03 136.19C156.05 136.21 156.07 136.2 156.09 136.18L156.39 135.82C156.42 135.79 156.45 135.78 156.48 135.81L156.61 135.92C156.64 135.94 156.64 135.97 156.61 136.01L156.31 136.37C156.29 136.4 156.29 136.42 156.31 136.43L157.3 137.25C157.49 137.41 157.68 137.39 157.84 137.19L157.95 137.06C157.98 137.03 158.01 137.02 158.04 137.05L158.17 137.16C158.2 137.18 158.2 137.21 158.17 137.25L158.03 137.41C157.9 137.57 157.75 137.66 157.58 137.68C157.41 137.7 157.25 137.65 157.09 137.51L156.09 136.68C156.08 136.65 156.06 136.66 156.04 136.68Z" fill="white"/>
<path d="M145.19 145.82C145.26 145.73 145.34 145.7 145.43 145.74L147.54 146.28L147.7 146.74L147.67 146.77C147.67 146.77 145 146.37 144.92 146.36C144.84 146.35 144.76 146.32 144.86 146.2L145.19 145.82ZM145.07 145.71L144.76 146.09C144.68 146.18 144.66 146.27 144.69 146.36C144.72 146.44 144.8 146.49 144.91 146.51C144.99 146.52 147.66 146.92 147.66 146.92C147.71 146.93 147.77 146.91 147.8 146.86L147.83 146.83C147.87 146.79 147.88 146.73 147.86 146.68L147.7 146.22C147.68 146.17 147.64 146.13 147.59 146.12L145.48 145.58C145.33 145.53 145.18 145.58 145.07 145.71Z" fill="white"/>
<path d="M148.47 147.36L148.74 147.4L149.5 150.31L148.44 147.39L148.47 147.36ZM148.35 147.26L148.32 147.29C148.28 147.33 148.27 147.39 148.29 147.44L149.35 150.36C149.38 150.44 149.46 150.48 149.54 150.46C149.57 150.45 149.6 150.43 149.61 150.41C149.64 150.37 149.65 150.32 149.64 150.27L148.88 147.36C148.86 147.3 148.81 147.25 148.75 147.24L148.48 147.2C148.44 147.19 148.38 147.21 148.35 147.26Z" fill="white"/>
<path d="M147.69 142.79C147.72 142.75 147.75 142.74 147.79 142.74C147.82 142.75 147.84 142.77 147.86 142.82L148.65 146.28L152.1 147.18L148.39 146.62L147.37 143.45C147.35 143.41 147.31 143.28 147.38 143.19L147.69 142.79ZM147.57 142.69L147.24 143.09C147.18 143.16 147.13 143.29 147.2 143.5L148.22 146.67C148.24 146.73 148.29 146.77 148.35 146.78L152.06 147.34C152.12 147.35 152.17 147.33 152.21 147.28C152.23 147.26 152.24 147.24 152.24 147.21C152.26 147.13 152.21 147.05 152.13 147.03L148.77 146.15L148 142.79V142.78C147.96 142.65 147.87 142.6 147.82 142.59C147.77 142.58 147.67 142.57 147.57 142.69Z" fill="white"/>
<path d="M9.98996 130.99C9.97996 131.3 10.07 131.62 10.06 131.94C10.03 132.52 10.15 133.06 10.28 133.62C10.4 134.1 10.61 134.57 10.55 135.09C10.54 135.21 10.6 135.38 10.69 135.46C11.01 135.78 11.05 136.22 11.23 136.6C11.45 137.05 11.57 137.53 11.69 138.01C11.83 138.6 12 139.18 12.47 139.64C12.73 139.9 12.86 140.29 13.17 140.54C13.23 140.59 13.24 140.7 13.27 140.79C13.46 141.27 13.74 141.66 14.14 141.99C14.3 142.12 14.41 142.29 14.54 142.45C14.64 142.57 14.71 142.72 14.82 142.84C15.31 143.37 15.78 143.92 16.3 144.43C16.59 144.71 16.88 145.04 17.28 145.14C17.77 145.26 18.13 145.57 18.49 145.87C18.63 145.99 18.77 146.08 18.93 146.16C19.48 146.44 19.98 146.77 20.29 147.34C20.42 147.56 20.65 147.74 20.87 147.9C21.14 148.1 21.45 148.26 21.74 148.44C21.99 148.59 22.23 148.77 22.5 148.89C23.77 149.49 25.04 150.1 26.39 150.52C26.93 150.69 27.48 150.84 28.03 150.98C28.34 151.05 28.66 151.05 28.97 151.1C29.64 151.21 30.31 151.33 30.98 151.44C31.81 151.58 32.64 151.7 33.46 151.84C34.02 151.94 34.57 152.06 35.13 152.15C35.85 152.26 36.56 152.37 37.29 152.42C38.04 152.47 38.78 152.6 39.52 152.66C39.97 152.69 40.43 152.65 40.88 152.63C41.06 152.62 41.24 152.58 41.42 152.58C42.53 152.56 43.65 152.56 44.76 152.54C45.01 152.54 45.27 152.55 45.51 152.5C46.36 152.31 47.22 152.27 48.08 152.28C48.47 152.28 48.86 152.3 49.22 152.43C49.61 152.57 50.02 152.59 50.43 152.59C51.02 152.59 51.61 152.57 52.2 152.63C52.82 152.69 53.42 152.71 54.03 152.59C54.27 152.54 54.53 152.53 54.78 152.54C55.94 152.57 57.09 152.68 58.25 152.58C58.41 152.57 58.57 152.58 58.73 152.59C59.07 152.61 59.41 152.65 59.75 152.67C60.14 152.69 60.53 152.67 60.91 152.71C62.27 152.84 63.63 152.87 65 152.82C65.36 152.81 65.73 152.81 66.09 152.88C66.55 152.97 66.99 152.93 67.44 152.89C67.71 152.87 67.98 152.86 68.26 152.86C68.87 152.85 69.49 152.85 70.1 152.83C70.3 152.82 70.51 152.8 70.71 152.75C71.18 152.63 71.65 152.59 72.13 152.55C72.54 152.52 72.94 152.47 73.35 152.42C73.64 152.38 73.93 152.31 74.22 152.28C75.37 152.17 76.52 152.31 77.65 152.04C78.14 151.92 103.93 150.94 104.27 150.93C104.66 150.92 105.04 150.92 105.42 150.84C105.68 150.79 105.96 150.77 106.23 150.77C107.37 150.81 108.48 150.66 109.61 150.6C109.7 150.6 109.79 150.57 109.87 150.54C110.24 150.39 110.62 150.36 111.01 150.44C111.14 150.47 111.28 150.45 111.42 150.45C112.28 150.41 113.14 150.38 114 150.34C114.31 150.32 114.63 150.06 114.94 150.04C115.37 150.01 117.28 149.86 117.83 149.88C118.07 149.85 118.04 149.83 118.36 149.7C118.84 149.45 118.98 149.73 119.21 149.64C119.42 149.57 119.81 149.51 120.04 149.53C120.29 149.49 121.48 149.56 121.54 149.55C121.97 149.54 122.39 149.3 122.81 149.22C123.14 149.15 123.49 149.1 123.82 149.13C124.41 149.18 124.99 148.96 125.57 148.91C125.89 148.88 126.21 148.86 126.52 148.88C127.09 148.93 128.33 148.69 128.9 148.77C129 148.79 129.12 148.73 129.23 148.69C129.81 148.48 130.41 148.37 131.03 148.36C131.83 148.35 132.61 148.16 133.38 148.01C134 147.89 134.63 147.8 135.26 147.7C135.57 147.65 135.88 147.6 136.18 147.47C136.5 147.33 136.82 147.13 137.21 147.25C137.29 147.27 137.39 147.23 137.47 147.21C137.75 147.13 138.03 147.02 138.32 146.96C139.28 146.75 140.18 146.39 141.06 145.95C141.28 145.84 141.47 145.66 141.69 145.56C142.32 145.28 142.88 144.91 143.38 144.44C143.48 144.35 143.59 144.27 143.71 144.2C144.41 143.73 145.09 143.24 145.66 142.61C145.95 142.29 146.26 141.99 146.64 141.76C146.77 141.68 146.93 141.58 146.99 141.45C147.16 141.05 147.56 140.88 147.82 140.57C148.04 140.31 148.31 140.1 148.55 139.86C148.83 139.57 149.11 139.26 149.37 138.95C149.55 138.74 149.75 138.53 149.85 138.29C149.99 137.96 150.21 137.72 150.46 137.49C150.75 137.23 150.98 136.93 151.11 136.55C151.26 136.12 151.48 135.73 151.73 135.35C152.06 134.84 152.27 134.25 152.48 133.68C152.72 133.02 152.94 132.35 153.17 131.68C153.23 131.51 153.28 131.34 153.32 131.16C153.45 130.47 153.8 129.77 153.84 129.07C153.87 128.55 153.34 126.58 153.39 126.51C153.51 126.35 153.19 125.58 153.19 125.38C153.21 124.35 153.12 123.34 152.85 122.35C152.81 122.2 152.78 122.04 152.77 121.88C152.74 121.4 152.59 120.94 152.46 120.48C152.33 120.01 152.07 119.57 152.12 119.05C152.13 118.94 152.08 118.82 152.03 118.72C151.77 118.25 151.65 117.75 151.61 117.22C151.6 117.13 151.57 117.04 151.54 116.96C151.2 116.01 151.3 115.13 150.61 114.37C150.18 113.9 150.12 113.41 149.86 112.82C149.57 112.18 149.53 111.54 148.96 111.08C148.77 110.92 148.43 110.71 148.44 110.47C148.44 110.33 148.19 110.19 148.17 110.06C148.15 109.91 148.12 109.74 148.04 109.61C147.32 108.55 145.86 107.6 144.84 106.83C144.68 106.71 144.46 106.67 144.31 106.55C144.16 106.43 144.06 106.23 143.92 106.09C143.83 106 143.7 105.93 143.58 105.86C143.36 105.73 143.14 105.62 142.93 105.49C142.55 105.25 142.09 105.14 141.78 104.78C141.29 104.6 140.81 104.4 140.32 104.24C139.98 104.13 139.62 104.06 139.27 103.96C138.49 103.74 137.76 103.28 136.92 103.3C136.88 103.3 136.83 103.29 136.79 103.27C136.53 103.12 136.26 103.13 135.99 103.15C135.79 103.17 135.58 103.05 135.38 103.09C135.07 103.15 133.98 102.76 133.79 102.65C133.1 102.3 132.33 102.38 131.62 102.07C130.85 101.74 130.06 102.01 129.26 101.73C128.81 101.57 128.35 101.44 127.87 101.66C127.76 101.71 127.6 101.67 127.47 101.66C127.29 101.65 127.11 101.64 126.93 101.63C126.27 101.58 125.62 101.56 124.96 101.59C124.51 101.61 124.06 101.63 123.61 101.61C122.78 101.58 121.99 101.77 121.19 101.9C120.43 102.03 119.67 101.9 118.94 102.15C118.77 102.21 118.58 102.26 118.41 102.25C117.66 102.2 116.93 102.71 116.18 102.62C115.19 102.77 114.2 103.31 112.98 103.32C112.75 103.33 112.29 103.36 111.84 103.38C111.29 103.4 110.88 103.18 110.65 102.65C110.52 102.34 110.49 101.99 110.69 101.75C110.92 101.48 111.24 101.26 111.66 101.42C111.99 101.55 112.32 101.56 112.67 101.54C113.55 101.47 114.43 100.9 115.3 100.7C115.76 100.6 116.23 100.23 116.71 100.27C117.17 100.31 117.62 100.34 118.06 100.19C118.23 100.13 118.42 100.12 118.59 100.08C119.55 99.9 120.51 99.99 121.47 99.82C122.01 99.73 122.55 99.67 123.09 99.6C123.74 99.52 124.4 99.71 125.05 99.63C125.43 99.58 125.82 99.51 126.2 99.5C127.52 99.49 128.84 99.71 130.16 99.7C130.43 99.7 130.69 99.63 130.95 99.52C131.47 99.29 132.02 99.13 132.6 99.21C132.78 99.24 132.91 99.19 133.02 99.06C133.19 98.85 133.4 98.77 133.67 98.75C133.92 98.74 134.16 98.66 134.41 98.63C134.64 98.6 134.85 98.53 135.03 98.39C135.79 97.82 136.72 97.51 137.42 96.84C138.03 96.57 138.52 96.14 139.03 95.74C139.55 95.33 140.08 94.93 140.54 94.46C140.87 94.13 141.1 93.69 141.37 93.3C141.51 93.09 141.63 92.88 141.75 92.66C142.01 92.21 142.3 91.77 142.51 91.29C142.82 90.56 143.07 89.81 143.34 89.06C143.43 88.81 143.47 88.53 143.55 88.28C143.82 87.4 143.92 86.51 143.87 85.59C143.85 85.25 143.9 84.91 143.85 84.57C143.8 84.23 143.91 83.9 143.76 83.56C143.54 83.06 143.34 82.56 143.37 81.99C143.38 81.86 143.32 81.72 143.27 81.6C143.13 81.19 142.97 80.79 142.83 80.39C142.68 79.98 141.7 77.68 141.52 77.28C141.35 76.91 141.24 76.51 141.07 76.15C140.88 75.76 140.68 75.37 140.42 75.04C140.23 74.79 140.03 74.55 139.87 74.27C139.76 74.08 139.6 73.89 139.42 73.77C139.18 73.61 139.24 73.31 139.04 73.14C138.79 72.92 138.57 72.65 138.32 72.42C137.93 72.08 137.54 71.73 137.12 71.42C136.68 71.1 135.49 70 135.35 69.94C134.61 69.59 133.41 69.03 132.65 68.73C132.59 68.71 132.51 68.69 132.45 68.7C132.01 68.81 131.6 68.23 131.18 68.14C130.61 68.01 130.06 67.83 129.45 68.01C129.21 68.08 128.91 67.99 128.65 67.96C128.4 67.93 128.16 67.83 127.91 67.83C127.16 67.84 126.41 67.8 125.67 67.77C125.15 67.75 124.63 67.74 124.12 67.59C124.04 67.56 123.94 67.56 123.85 67.57C123.54 67.6 123.22 67.65 122.91 67.72C122.61 67.78 120.87 68.16 120.48 68.12C120.02 68.07 118.13 68.66 117.84 68.62C117.48 68.57 117.12 68.91 116.76 68.92C116.31 68.93 115.86 68.84 115.41 68.97C114.88 69.13 115.33 69.12 114.79 69.14C114.56 69.15 114.32 69.12 114.16 68.94C113.95 68.72 113.86 68.44 113.86 68.13C113.85 67.89 113.94 67.71 114.14 67.55C114.33 67.41 115.4 65.95 116.24 65.55C116.53 65.41 116.81 65.27 116.95 64.95C116.99 64.87 117.05 64.79 117.12 64.75C117.59 64.45 118.06 64.13 118.56 63.87C118.98 63.65 118.95 63.49 119.39 63.3C119.47 63.26 119.57 63.23 119.62 63.16C119.9 62.81 120.33 62.67 120.66 62.4C120.87 62.23 121.08 62.06 121.26 61.86C121.55 61.55 121.85 61.23 122.19 60.98C122.57 60.71 122.88 60.39 123.16 60.04C123.51 59.59 123.88 59.16 124.22 58.71C124.42 58.44 124.58 58.14 124.76 57.86C124.81 57.78 124.81 57.67 124.87 57.62C125.25 57.28 125.41 56.79 125.68 56.38C126.35 55.35 126.92 54.27 127.22 53.07C127.24 52.98 127.29 52.9 127.33 52.82C127.62 52.13 127.9 51.43 128.02 50.69C128.12 50.07 128.33 49.51 128.59 48.95C128.82 48.46 129 47.95 129.05 47.39C129.14 46.3 128.95 45.21 128.97 44.12C128.97 44.05 128.94 43.99 128.93 43.92C128.83 43.45 128.73 42.99 128.64 42.52C128.61 42.37 128.59 42.2 128.61 42.04C128.66 41.65 128.59 41.27 128.48 40.9C128.27 40.2 128.18 39.48 127.95 38.79C127.83 38.43 127.74 38.05 127.55 37.71C127.32 37.29 127.13 36.85 126.82 36.48C126.63 36.25 126.44 36.02 126.31 35.76C126.07 35.27 125.78 34.81 125.5 34.34C125.08 33.61 124.54 32.97 123.98 32.35C123.69 32.03 123.34 31.78 123.18 31.35C123.14 31.25 123.03 31.18 122.97 31.09C122.67 30.62 122.17 30.36 121.76 30.02C120.79 29.23 119.67 28.65 118.54 28.12C117.74 27.74 116.88 27.53 116.04 27.25C115.98 27.23 115.91 27.21 115.84 27.21C115.41 27.21 115.01 27.08 114.61 26.94C114.14 26.78 113.67 26.59 113.18 26.49C112.47 26.35 111.74 26.3 111.03 26.17C110.06 25.99 109.09 26.03 108.11 26.07C107.22 26.11 106.33 26.16 105.45 26.11C104.61 26.07 103.83 26.22 103.08 26.59C102.69 26.78 102.29 26.94 101.9 27.12C101.54 27.28 101.22 27.48 101 27.82C100.8 28.12 100.49 28.25 100.17 28.38C99.83 28.51 99.5 28.41 99.16 28.45C98.58 28.52 98.09 28.05 98.15 27.46C98.2 26.97 98.32 26.48 98.41 25.99C98.46 25.7 98.57 25.41 98.57 25.12C98.57 24.44 98.54 23.76 98.49 23.08C98.45 22.54 98.36 22 98.33 21.46C98.28 20.36 98.07 19.3 97.73 18.26C97.42 17.33 96.95 16.48 96.57 15.58C96.55 15.54 96.52 15.5 96.49 15.47C96.1 14.92 95.78 14.32 95.37 13.77C94.99 13.27 94.68 12.7 94.33 12.17C93.53 10.98 92.54 9.94001 91.6 8.86001C91.54 8.79001 91.47 8.74001 91.4 8.68001C90.98 8.34001 90.59 7.95001 90.14 7.64001C89.49 7.19001 88.9 6.64001 88.15 6.34001C88.05 6.30001 87.94 6.24001 87.86 6.17001C87.6 5.93001 87.27 5.82001 86.96 5.69001C86.48 5.49001 85.96 5.38001 85.54 5.04001C85.49 5.00001 85.42 4.97001 85.35 4.96001C84.96 4.93001 84.6 4.82001 84.3 4.55001C84.27 4.52001 84.22 4.52001 84.17 4.51001C83.81 4.45001 83.45 4.34001 83.09 4.35001C82.38 4.37001 81.69 4.26001 81 4.13001C80.78 4.09001 80.55 4.08001 80.32 4.07001C80.17 4.06001 80.08 4.18001 80.1 4.34001C80.11 4.41001 80.11 4.48001 80.14 4.54001C80.3 4.84001 80.44 5.15001 80.63 5.43001C81.05 6.05001 81.48 6.66001 81.92 7.26001C82.34 7.83001 82.6 8.48001 82.8 9.15001C82.95 9.67001 83.07 10.21 83.25 10.72C83.51 11.47 83.72 12.24 83.88 13.01C83.92 13.21 84 13.4 84.04 13.59C84.18 14.16 84.32 14.73 84.43 15.31C84.6 16.18 84.6 17.07 84.81 17.93C84.83 18.02 84.86 18.11 84.85 18.2C84.75 18.76 84.89 19.33 84.87 19.89C84.86 20.07 84.86 20.26 84.89 20.43C84.97 20.84 84.86 21.24 84.91 21.65C84.66 22.13 84.78 22.67 84.64 23.18C84.51 23.63 84.57 24.14 84.46 24.6C84.21 25.66 84.17 26.76 83.69 27.76C83.65 27.84 83.64 27.94 83.64 28.03C83.62 28.4 83.48 28.73 83.32 29.07C83.04 29.66 82.72 30.23 82.37 30.78C82.26 30.95 82.07 31.09 82.02 31.27C81.83 31.95 81.39 32.18 80.71 32.18C80.41 32.18 80.11 32.22 79.85 32.09C79.52 31.93 79.19 31.94 78.85 31.99C78.53 32 78.26 32 78 31.91C77.39 31.71 76.76 31.08 76.13 31.06C75.68 31.04 75.23 31.01 74.79 30.97C74.68 30.96 74.56 30.98 74.45 30.99C73.73 31.04 73.01 31.01 72.29 31.07C71.62 31.12 70.94 31.07 70.27 31.09C69.68 31.11 69.09 31.14 68.51 31.17C68.17 31.19 67.83 31.24 67.5 31.25C67 31.27 66.51 31.32 66.02 31.42C65.27 31.58 64.52 32.3 63.76 32.41C63.54 32.44 63.31 32.51 63.11 32.6C62.67 32.79 62.25 33.01 61.82 33.21C61.39 33.41 61.04 33.74 60.64 33.99C60.26 34.22 59.99 34.62 59.53 34.74C59.47 34.75 59.44 34.84 59.39 34.88C59.14 35.11 58.84 35.28 58.66 35.59C58.23 35.75 58.05 36.18 57.76 36.49C57.67 36.59 57.58 36.69 57.49 36.8C57.2 37.17 56.8 37.44 56.49 37.8C56.1 38.24 55.69 38.66 55.33 39.13C54.93 39.64 54.61 40.22 54.2 40.74C54.19 40.76 54.18 40.78 54.17 40.8C53.85 41.69 53.35 42.51 53.16 43.46C53.11 43.7 52.99 43.93 52.87 44.15C52.73 44.41 52.87 44.69 52.81 44.95C52.63 45.72 52.55 46.51 52.52 47.3C52.51 47.57 52.48 47.85 52.54 48.11C52.72 48.96 52.75 49.8 52.6 50.66C52.57 50.81 52.57 50.99 52.63 51.13C52.84 51.68 52.69 52.31 53 52.84C53.11 53.65 53.54 54.33 53.97 55C54.22 55.39 54.45 55.82 54.82 56.13C54.87 56.17 54.92 56.24 54.92 56.3C54.91 56.6 55.11 56.75 55.31 56.9C55.55 57.07 55.6 57.42 55.89 57.55C55.93 57.57 55.92 57.67 55.94 57.73C55.98 57.83 56.02 57.94 56.1 58.02C56.29 58.21 56.51 58.38 56.7 58.57C56.83 58.7 56.96 58.7 57.13 58.68C57.58 58.64 58.04 58.69 58.47 58.83C59.16 59.05 59.83 59.33 60.51 59.57C61.17 59.8 61.84 60.01 62.51 60.23C62.6 60.26 62.69 60.26 62.78 60.28C62.91 60.31 63.05 60.35 63.17 60.4C63.69 60.62 64.22 60.83 64.77 60.97C64.89 61 64.99 61.11 65.11 61.18C65.27 61.26 65.42 61.31 65.59 61.34C66.06 61.43 66.52 61.52 66.88 61.88C66.97 61.97 67.11 62.02 67.24 62.07C67.94 62.38 68.65 62.69 69.35 63C70.05 63.31 70.75 63.43 71.46 63.73C71.88 63.9 72.31 63.91 72.75 64.03C73.2 64.16 73.67 64.25 74.1 64.44C74.12 64.45 74.14 64.46 74.17 64.46C74.75 64.49 75.25 64.79 75.79 64.96C76.5 65.19 77.15 65.44 77.92 65.45C77.96 65.45 78.01 65.47 78.05 65.49C78.81 65.86 79.65 65.97 80.46 66.15C80.79 66.22 81.14 66.34 81.47 66.3C81.88 66.25 82.23 66.37 82.6 66.45C83.11 66.57 83.61 66.72 84.14 66.71C84.55 66.71 84.96 66.74 85.35 66.84C85.64 66.91 85.93 67.21 86.22 67.21C86.92 67.2 87.63 67.2 88.33 67.18C88.69 67.17 89.05 67.34 89.41 67.32C89.7 67.3 90 67.28 90.29 67.28C91.17 67.3 92.05 67.34 92.91 67.08C92.98 67.06 93.04 67.04 93.11 67.04C93.92 67.01 94.43 67.92 94.17 68.5C94.01 68.86 93.52 69.26 93.07 69.3C92.66 69.34 92.25 69.33 91.85 69.37C91.36 69.41 90.85 69.24 90.4 69.54C90.36 69.57 90.27 69.53 90.2 69.52C89.84 69.5 89.48 69.45 89.12 69.48C88.08 69.5 87.04 69.13 86 69C84.83 68.86 83.66 68.56 82.48 68.41C82.28 68.39 82.07 68.38 81.87 68.41C81.59 68.44 81.34 68.42 81.08 68.3C80.69 68.11 80.28 67.98 79.83 68.04C79.73 68.05 79.61 68.01 79.5 67.98C79.35 67.94 79.2 67.89 79.05 67.86C78.67 67.78 78.29 67.74 77.92 67.64C77.42 67.5 76.94 67.3 76.45 67.13C76.24 67.05 76.03 66.98 75.81 66.9C75.64 66.84 75.46 66.92 75.3 66.85C74.68 66.57 74.05 66.3 73.37 66.2C73.22 66.18 73.07 66.1 72.92 66.04C72.23 65.76 71.54 65.58 70.84 65.32C70.07 65.04 69.31 64.94 68.58 64.57C68.44 64.5 68.29 64.45 68.14 64.4C67.55 64.23 67 63.96 66.43 63.74C66.05 63.6 65.7 63.38 65.31 63.25C64.73 63.05 64.13 62.99 63.58 62.71C63.18 62.71 62.84 62.5 62.53 62.29C62.31 62.15 62.07 62.09 61.84 62.01C61.52 61.9 61.18 61.85 60.86 61.75C60.54 61.65 60.23 61.5 59.91 61.4C59.15 61.18 58.36 61.05 57.61 60.81C57.46 60.76 57.3 60.76 57.14 60.73C56.78 60.67 56.43 60.61 56.07 60.54C55.76 60.48 55.45 60.35 55.14 60.37C54.7 60.4 54.24 60.37 53.81 60.55C53.55 60.66 53.23 60.65 52.94 60.69C52.83 60.71 52.71 60.7 52.61 60.73C52.09 60.89 51.54 60.87 51.04 61.12C50.97 61.16 50.86 61.15 50.77 61.14C50.41 61.11 50.09 61.23 49.8 61.42C49.54 61.59 49.27 61.67 48.97 61.69C48.33 61.72 47.74 61.93 47.16 62.19C47.02 62.25 46.86 62.29 46.71 62.33C46.6 62.36 46.49 62.37 46.39 62.41C45.62 62.74 44.87 63.12 44.08 63.41C43.1 63.78 42.29 64.38 41.47 64.99C40.87 65.43 40.38 66.01 39.72 66.39C39.59 66.47 39.49 66.61 39.38 66.72C39.29 66.82 39.21 66.93 39.11 67.02C38.08 67.88 37.21 68.9 36.42 69.98C35.7 70.97 34.9 71.9 34.37 73.02C34.35 73.06 34.3 73.09 34.29 73.13C34.16 73.51 33.87 73.82 33.79 74.23C33.74 74.49 33.65 74.78 33.48 74.96C33.24 75.2 33.15 75.46 33.04 75.76C32.77 76.46 32.55 77.17 32.4 77.91C32.34 78.2 32.25 78.48 32.2 78.77C32.15 79.08 32.17 79.42 32.07 79.71C31.97 79.99 31.92 80.26 31.92 80.54C31.92 80.77 31.94 80.99 31.78 81.19C31.74 81.25 31.76 81.36 31.76 81.45C31.77 81.58 31.84 81.73 31.81 81.85C31.7 82.36 31.8 82.84 31.97 83.32C32 83.4 31.98 83.5 32 83.59C32.06 83.83 32.11 84.08 32.2 84.31C32.27 84.48 32.31 84.64 32.28 84.83C32.24 85.24 32.26 85.64 32.42 86.03C32.51 86.26 32.47 86.16 32.49 86.41C32.53 87.08 32.8 87.68 32.96 88.32C33.23 89.36 33.63 90.34 34.05 91.32C34.33 91.98 34.67 92.63 35.01 93.26C35.19 93.6 35.4 93.93 35.84 94.01C35.92 94.02 36.38 94.51 36.63 94.47C37.11 94.39 37.6 94.39 38.05 94.5C38.94 94.73 39.84 95.16 40.75 95.26C41.86 95.38 43.12 95.85 44.23 95.96C44.98 95.85 45.72 96.11 46.47 96.05C47.32 96.26 48.19 96.19 49.04 96.32C49.53 96.39 50.04 96.35 50.54 96.36C51.59 96.38 52.63 95.83 53.68 95.81C54.51 95.79 55.3 95.53 56.09 95.77C56.37 95.85 56.66 95.92 56.96 95.87C57.09 95.85 57.23 95.87 57.37 95.89C57.97 95.98 58.59 95.96 59.19 96.14C59.38 96.2 59.6 96.17 59.8 96.18C60.41 96.2 61.03 96.55 61.64 96.57C62.53 96.59 63.02 97.17 63.43 97.85C63.62 98.18 63.45 98.6 63.09 98.75C62.56 98.96 62.02 99.1 61.44 98.95C61.09 98.86 60.75 98.75 60.4 98.65C59.92 98.51 59.42 98.1 58.93 98.04C57.94 97.91 56.93 97.98 55.96 97.71C55.85 97.68 55.73 97.71 55.62 97.7C54.94 97.62 54.26 97.91 53.6 97.78C53.21 97.71 52.85 97.84 52.46 97.95C52.33 97.99 52.19 97.97 52.06 97.97C51.77 97.95 50.59 98.33 50.3 98.31C49.64 98.26 48.99 98.17 48.33 98.15C47.72 98.13 47.11 98 46.5 98.11C46.31 98.14 46.07 98.14 45.9 98.06C45.32 97.81 44.71 97.81 44.1 97.79C42.42 97.74 40.6 96.79 38.93 96.54C38.71 96.51 38.48 96.52 38.25 96.49C37.64 96.42 37.29 96.37 36.67 96.26C36.32 96.19 36.23 96.22 35.77 96.44C35.44 96.57 34.51 96.93 34.26 96.98C33.97 97.04 33.42 97.25 33.13 97.3C33.04 97.32 32.95 97.34 32.87 97.39C32.42 97.67 31.95 97.88 31.44 98.01C30.94 98.15 30.47 98.35 29.96 98.47C29.64 98.54 28.85 98.94 28.74 98.98C28.53 99.06 28.05 99.28 27.83 99.34C27.23 99.5 26.67 99.96 26.12 100.22C25.8 100.48 25.49 100.6 25.28 100.94C24.98 101.23 24.86 101.44 24.55 101.67C23.89 102.15 23.32 102.62 22.69 103.15C22.06 103.67 21.51 104.18 20.99 104.82C20.91 104.92 20.78 104.99 20.66 105.05C20.05 105.4 19.49 105.83 18.97 106.3C18.82 106.44 18.67 106.57 18.49 106.67C17.85 107.08 17.33 107.59 17.01 108.3C16.92 108.5 16.76 108.68 16.62 108.85C16.28 109.24 15.91 109.61 15.6 110.02C15.2 110.56 14.83 111.13 14.47 111.71C14.28 112.02 14.08 112.33 13.97 112.67C13.89 112.92 13.78 113.13 13.67 113.35C13.53 113.61 13.36 113.88 13.32 114.16C13.27 114.51 12.88 115.14 12.85 115.17C12.64 115.52 12.49 115.89 12.33 116.27C12.11 116.81 11.95 117.37 11.63 117.87C11.4 118.23 11.27 118.65 11.19 119.08C11.06 119.79 10.94 120.51 10.75 121.21C10.52 122.06 10.23 122.9 9.95996 123.74C9.91996 123.85 9.94996 123.93 9.96996 124.06C10.09 124.87 9.95996 125.21 9.91996 125.64C9.81996 126.12 9.79996 126.6 9.81996 127.1C9.83996 127.6 9.79996 128.1 9.83996 128.59C9.91996 129.36 9.99996 130.17 9.98996 130.99ZM113.84 81.39C113.92 80.97 114.22 80.55 114.31 80.13C114.34 80 114.38 79.85 114.36 79.73C114.26 79.14 114.63 78.62 114.78 78.08C114.81 77.97 114.88 77.88 114.93 77.78C115.15 77.38 115.34 76.97 115.58 76.59C115.87 76.14 116.16 75.68 116.68 75.42C116.89 75.31 117.11 75.12 117.22 74.91C117.44 74.46 117.94 74.29 118.2 73.88C118.23 73.83 118.32 73.82 118.37 73.78C118.73 73.55 119.17 73.44 119.42 73.05C120.23 72.7 120.86 72.02 121.75 71.81C121.84 71.79 121.92 71.75 122 71.7C122.67 71.3 123.43 71.14 124.16 70.91C124.92 70.67 125.71 70.59 126.49 70.44C127.31 70.28 128.15 70.22 129 70.31C129.89 70.4 130.75 70.57 131.57 70.94C131.61 70.96 131.65 70.98 131.7 70.99C132.34 71.06 132.9 71.39 133.51 71.57C134.27 71.79 134.92 72.19 135.55 72.63C136.45 73.27 137.15 74.11 137.75 75.02C137.95 75.32 138.14 75.62 138.33 75.93C138.66 76.46 138.88 77.03 139 77.63C139.13 78.3 139.2 78.97 139.29 79.65C139.32 79.89 139.21 80.03 138.95 80.06C138.82 80.08 137.35 80.8 136.77 80.93C136.21 81.05 135.68 81.24 135.15 81.44C134.65 81.63 133.62 81.71 133.15 81.55C132.98 81.49 132.83 81.39 132.67 81.3C132.49 81.19 132.36 81.04 132.34 80.81C132.29 80.14 132 79.54 131.72 78.95C131.36 78.18 130.76 77.63 129.95 77.35C129.5 77.19 129.05 77.03 128.58 76.94C128.12 76.85 127.64 76.84 127.17 76.81C126.68 76.78 126.23 76.96 125.77 77.08C125.37 77.18 124.99 77.33 124.6 77.46C124.54 77.48 124.46 77.49 124.41 77.53C123.88 77.95 123.25 78.24 122.78 78.75C122.66 78.88 122.56 79.03 122.45 79.17C122.31 79.35 122.17 79.53 122.04 79.71C121.93 79.86 121.82 80 121.74 80.16C121.42 80.79 121.11 81.41 120.82 82.05C120.7 82.32 120.65 82.61 120.59 82.9C120.48 83.36 120.37 83.82 120.33 84.3C120.24 85.53 120.55 86.68 120.99 87.81C121.11 88.12 121.32 88.41 121.51 88.69C122.09 89.57 122.79 90.34 123.69 90.91C124.25 91.26 124.84 91.55 125.46 91.77C125.67 91.84 125.9 91.89 126.13 91.9C126.77 91.92 127.41 91.94 128.04 91.89C128.58 91.85 129.11 91.72 129.65 91.62C129.96 91.37 130.37 91.39 130.72 91.24C131.13 91.07 131.5 90.78 131.87 90.53C132 90.44 132.1 90.31 132.24 90.23C132.52 90.06 132.74 89.85 132.87 89.54C132.9 89.46 132.97 89.39 133.03 89.32C133.37 88.91 133.59 88.88 134.08 89.16C134.3 89.28 134.53 89.38 134.76 89.47C135.21 89.63 135.62 89.85 136 90.16C136.42 90.5 136.89 90.78 137.33 91.09C137.57 91.26 137.8 91.44 138.01 91.65C138.13 91.77 138.2 91.95 138.29 92.11C138.36 92.24 138.35 92.37 138.29 92.5C137.91 93.36 137.35 94.1 136.61 94.7C136.33 94.93 136.07 95.18 135.81 95.43C134.93 96.31 133.94 97.01 132.71 97.32C132.58 97.35 132.46 97.42 132.33 97.47C132.23 97.51 132.12 97.57 132.01 97.59C130.92 97.81 129.84 98.1 128.73 98.16C127.71 98.22 126.69 98.35 125.67 98.19C124.5 98.01 123.36 97.72 122.26 97.27C121.76 97.06 121.24 96.9 120.77 96.61C120.54 96.47 120.26 96.43 120 96.33C119.71 96.21 119.42 96.08 119.15 95.92C118.6 95.61 118.05 95.29 117.54 94.9C117.23 94.67 116.98 94.37 116.6 94.24C116.49 94.2 116.42 94.05 116.34 93.94C115.94 93.36 115.54 92.78 115.16 92.19C114.75 91.56 114.51 90.85 114.23 90.16C113.78 89.07 113.78 87.93 113.72 86.81C113.71 86.68 113.74 86.54 113.75 86.4C113.75 86.26 113.74 86.13 113.73 85.99C113.74 85.99 113.74 85.99 113.75 85.99C113.73 85.26 113.71 84.54 113.7 83.81C113.68 83 113.68 82.19 113.84 81.39ZM110.63 112.9C111.1 112.86 111.55 112.67 112.01 112.55C112.14 112.52 112.28 112.49 112.41 112.5C112.93 112.53 113.45 112.57 113.97 112.61C114.2 112.63 114.42 112.63 114.65 112.65C114.92 112.67 115.19 112.71 115.46 112.72C115.8 112.73 116.14 112.74 116.48 112.73C116.63 112.73 116.73 112.64 116.78 112.49C116.87 112.23 116.95 111.97 117.03 111.71C117.18 111.23 117.31 110.75 117.49 110.28C117.79 109.51 118.15 107.75 118.31 106.95C118.48 106.15 118.66 105.83 118.83 105.04C118.87 104.86 118.9 104.68 118.91 104.5C118.93 104.1 119.16 103.89 119.51 103.76C119.97 103.59 120.45 103.52 120.92 103.6C122.34 103.85 123.16 103.27 124.58 103.37C124.94 103.39 125.31 103.43 125.66 103.48C126.46 103.59 127.01 104.25 126.93 105.07C126.82 106.24 126.65 107.41 126.51 108.59C126.18 109.37 125.96 111.18 125.8 112C125.76 112.17 125.73 112.35 125.7 112.53C125.97 112.68 126.24 112.69 126.51 112.69C126.9 112.69 127.28 112.74 127.66 112.8C128.27 112.88 128.88 112.89 129.5 112.89C130.2 112.89 131.52 112.85 132.22 112.82C132.45 112.81 132.68 112.81 132.9 112.81C133.45 112.82 133.94 113 134.34 113.35C134.62 113.6 134.82 113.96 134.81 114.37C134.8 114.76 134.78 115.13 134.95 115.5C135.03 115.67 134.98 115.9 134.95 116.1C134.9 116.43 134.82 116.76 134.74 117.09C134.72 117.17 134.65 117.25 134.58 117.3C134.27 117.51 134.05 117.79 133.89 118.12C133.59 118.73 133.09 119 132.43 119.09C131.66 119.19 130.9 119.27 130.12 119.31C129.71 119.33 129.31 119.41 128.9 119.46C128.76 119.48 128.63 119.5 128.49 119.49C127.95 119.45 127.54 119.39 127 119.35C126.68 119.33 126.36 119.32 126.05 119.33C125.5 119.35 124.96 119.38 124.42 119.41C124.17 119.42 124.02 119.54 123.93 119.8C123.64 120.62 123.41 121.44 123.29 122.3C123.22 122.84 123.33 122.42 123.23 122.96C123.19 123.16 123.16 123.37 123.08 123.55C122.94 123.85 122.91 124.16 122.88 124.48C122.81 125.36 122.72 126.24 122.65 127.13C122.6 127.76 122.5 128.4 122.56 129.03C122.63 129.87 122.72 130.7 122.94 131.52C123.03 131.87 123.04 132.21 123.21 132.53C123.73 133.56 124.45 134.43 125.37 135.12C125.55 135.25 125.76 135.35 125.96 135.44C126.25 135.57 126.56 135.66 126.85 135.79C127.21 135.95 127.57 136.05 127.96 136.11C128.29 136.17 128.62 136.27 128.94 136.38C129.87 136.68 130.83 136.88 131.81 136.83C132.58 136.8 133.34 136.68 134.07 136.37C134.53 136.17 135.01 136.03 135.47 135.83C135.69 135.73 135.89 135.57 136.1 135.43C136.38 135.24 136.67 135.06 136.94 134.85C137.84 134.11 138.57 133.22 139.26 132.28C140 131.28 140.45 130.15 140.85 129C140.96 128.68 141.15 128.39 141.18 128.04C141.2 127.77 141.27 127.5 141.31 127.24C141.33 127.15 141.33 127.06 141.35 126.97C141.47 126.39 141.68 126.22 142.25 126.3C142.56 126.34 142.87 126.43 143.18 126.49C143.29 126.51 143.4 126.57 143.51 126.57C144.02 126.58 144.48 126.81 144.95 126.96C145.1 127.01 145.24 127.08 145.4 127.13C146.07 127.32 146.64 127.65 147.14 128.15C147.23 128.24 147.36 128.34 147.48 128.35C147.82 128.38 148.08 128.53 148.29 128.79C148.37 128.89 148.51 128.96 148.61 129.05C148.66 129.09 148.7 129.16 148.71 129.22C148.78 129.71 148.88 130.21 148.88 130.7C148.88 131.12 148.81 131.56 148.69 131.96C148.42 132.83 148.11 133.68 147.54 134.41C147.51 134.45 147.46 134.47 147.45 134.51C147.23 135.15 146.73 135.59 146.35 136.12C146.26 136.25 146.18 136.39 146.11 136.53C145.93 136.95 145.7 137.34 145.44 137.71C145.08 138.23 144.7 138.73 144.32 139.24C144.29 139.28 144.26 139.33 144.22 139.33C143.85 139.41 143.69 139.74 143.46 139.98C143.18 140.28 142.89 140.55 142.58 140.81C142.29 141.06 142.02 141.34 141.72 141.57C141.42 141.8 141.08 141.98 140.77 142.2C140.46 142.43 140.16 142.67 139.87 142.92C139.5 143.23 139.1 143.47 138.68 143.7C138.08 144.03 137.27 144.13 136.73 144.56C136.45 144.78 136.08 144.67 135.85 144.97C135.79 145.04 135.64 145.06 135.53 145.08C135.06 145.17 134.61 145.4 134.12 145.37C133.6 145.33 133.08 145.51 132.56 145.53C131.54 145.58 130.72 145.85 129.7 145.84C129.05 145.83 128.39 145.71 127.74 145.61C126.82 145.48 125.92 145.24 124.99 145.16C124.4 145.11 123.84 144.9 123.29 144.67C122.75 144.43 122.19 144.25 121.64 144.03C121.39 143.93 121.15 143.8 120.91 143.67C120.55 143.47 120.19 143.28 119.85 143.06C118.99 142.5 118.23 141.8 117.53 141.05C117.15 140.64 116.82 140.15 116.57 139.65C116.09 138.7 115.52 137.72 115.3 136.67C115.25 136.43 115.14 136.2 115.07 135.96C114.89 135.35 114.75 134.73 114.67 134.1C114.64 133.85 114.58 133.61 114.53 133.36C114.5 133.23 114.47 133.09 114.46 132.96C114.43 132.12 114.39 131.28 114.37 130.44C114.35 129.51 114.36 128.58 114.36 127.65C114.36 127.6 114.36 127.56 114.36 127.51C114.29 126.01 114.73 124.52 114.86 123.02C114.95 121.96 114.84 121.85 114.98 120.79C115.05 120.3 115.26 119.87 115.33 119.38C115.34 119.29 115.35 119.2 115.34 119.11C115.32 118.99 115.24 118.9 115.11 118.9C114.46 118.92 113.54 118.7 112.87 118.85C112.53 118.93 112.15 118.86 111.79 118.82C111.43 118.78 111.07 118.69 110.71 118.64C109.95 118.52 109.45 118.07 109.1 117.41C108.9 117.02 108.72 116.6 108.74 116.18C108.78 115.44 108.82 114.68 109.27 114.03C109.36 113.9 109.46 113.77 109.55 113.64C109.81 113.24 110.1 112.95 110.63 112.9ZM92.92 35.08C92.69 36.17 92.26 37.25 92.1 38.35C92 39.02 91.91 39.7 91.83 40.37C91.77 40.8 91.55 41.23 91.46 41.65C91.2 42.85 90.83 44.08 90.49 45.26C90.37 45.69 90.36 46.16 90.25 46.6C90.04 47.46 89.79 48.31 89.57 49.17C89.47 49.57 89.42 49.98 89.29 50.36C88.93 51.42 88.87 52.54 88.6 53.61C88.51 53.98 88.43 54.36 88.32 54.73C87.98 55.88 87.8 57.07 87.51 58.24C87.35 58.88 87.13 59.5 86.98 60.14C86.92 60.4 86.86 60.67 86.78 60.93C86.66 61.32 86.53 61.71 86.41 62.1C86.34 62.31 86.27 62.53 86.25 62.75C86.21 63.18 86.21 63.19 85.78 63.19C85.62 63.19 85.46 63.19 85.3 63.19C84.91 63.2 84.54 63.14 84.15 63.09C82.82 62.9 81.55 62.45 80.24 62.18C79.74 62.08 79.3 61.85 78.85 61.64C78.62 61.54 78.42 61.38 78.18 61.3C77.74 61.14 77.47 60.84 77.27 60.43C77.18 60.24 77.1 60.06 77.11 59.85C77.12 59.71 77.14 59.57 77.11 59.44C77.06 59.15 77.12 58.9 77.25 58.6C76.87 58.73 76.48 58.86 76.11 59.01C74.44 59.66 72.7 59.79 70.95 59.59C69.58 59.43 68.22 59.13 66.93 58.59C66.8 58.54 66.67 58.5 66.55 58.44C65.88 58.06 65.22 57.67 64.55 57.29C64.27 57.13 64 56.98 63.72 56.83C63.32 56.62 62.92 56.42 62.59 56.09C62.42 55.91 62.2 55.78 61.99 55.65C61.71 55.48 61.47 55.29 61.33 54.99C61.29 54.89 61.19 54.81 61.1 54.75C60.74 54.54 60.47 54.24 60.24 53.89C60.13 53.72 59.98 53.57 59.84 53.43C59.41 52.99 59.14 52.45 58.84 51.91C58.17 50.69 58.1 49.35 58.03 48.02C57.99 47.28 58.01 46.52 58.11 45.78C58.21 45 58.26 44.21 58.63 43.47C58.87 42.99 58.95 42.16 59.21 41.67C59.27 41.55 59.32 41.42 59.4 41.31C60 40.48 60.6 39.66 61.19 38.83C61.5 38.4 61.92 38.09 62.32 37.76C62.88 37.29 63.45 36.85 64.12 36.55C64.16 36.53 64.21 36.52 64.24 36.49C64.94 35.87 65.83 35.57 66.68 35.34C67.4 35.14 68.12 34.92 68.83 34.71C68.94 34.68 69.05 34.62 69.16 34.63C69.54 34.66 69.88 34.51 70.23 34.43C71.65 34.11 73.08 34.08 74.55 34.26C75.13 34.33 75.73 34.64 76.31 34.68C77.12 34.74 77.85 35.07 78.58 35.37C78.79 35.46 79 35.54 79.2 35.64C79.55 35.81 79.86 36.03 80.13 36.31C80.35 36.54 80.58 36.76 80.81 36.98C81.04 37.2 81.27 37.41 81.42 37.7C81.58 38 81.82 38.25 82.03 38.51C82.11 38.61 82.24 38.59 82.34 38.54C82.38 38.52 82.42 38.49 82.44 38.45C82.68 37.89 83.11 37.43 83.34 36.86C83.58 36.25 83.84 35.65 84.15 35.06C84.49 34.4 85.05 33.73 85.12 32.96C85.13 32.87 85.15 32.78 85.19 32.7C85.47 32.17 85.55 31.58 85.7 31.01C85.79 30.66 85.87 30.3 85.96 29.95C86.21 29.07 86.34 28.17 86.49 27.28C86.58 26.77 86.72 26.26 86.81 25.75C87.06 24.3 87.31 22.84 87.52 21.38C87.59 20.89 87.37 20.38 87.37 19.88C87.37 18.38 87.37 16.88 87.36 15.38C87.35 14.84 87.29 14.29 87.25 13.75C87.25 13.68 87.22 13.61 87.23 13.55C87.31 12.39 86.05 10.62 86.03 9.46001C86.02 9.18001 86.04 8.92001 86.23 8.69001C86.42 8.46001 86.61 8.38001 86.89 8.51001C87.19 8.66001 87.85 9.16001 88.1 9.38001C88.66 9.84001 89.19 10.34 89.72 10.83C90.02 11.11 91.01 12.65 91.28 12.96C91.81 13.55 92.33 14.15 92.7 14.86C92.86 15.16 93.07 15.42 93.28 15.69C93.39 15.84 93.49 15.98 93.53 16.16C93.55 16.26 93.63 16.38 93.71 16.43C94.14 16.72 94.33 17.2 94.64 17.59C94.94 17.97 95.15 18.39 95.29 18.85C95.3 18.89 95.31 18.94 95.33 18.98C95.43 19.21 95.6 19.42 95.62 19.66C95.67 20.34 95.74 21.01 95.66 21.69C95.55 22.5 95.35 22.29 95.26 23.11C95.22 23.53 95.26 23.95 95.15 24.36C94.9 25.26 94.84 26.13 94.72 27.06C94.69 27.28 94.64 27.51 94.56 27.72C94.28 28.47 94.37 29.26 94.17 30.03C94.02 30.6 93.83 31.16 93.69 31.74C93.41 32.87 93.15 33.97 92.92 35.08ZM94.17 52.06C94.08 51.57 93.99 51.08 93.91 50.58C93.81 50 93.72 49.42 93.64 48.83C93.61 48.61 93.59 48.38 93.59 48.15C93.58 47.08 94.01 46.63 93.97 45.56C93.92 44.33 94.21 43.17 94.64 42.04C94.7 41.87 94.78 41.7 94.81 41.53C95.01 40.58 95.44 39.73 95.85 38.88C95.93 38.72 96.03 38.56 96.15 38.43C97.07 37.45 97.55 35.83 98.59 34.97C99.01 34.62 99.45 34.3 99.89 33.98C100.61 33.46 101.33 32.95 102.07 32.46C102.41 32.24 102.8 32.1 103.16 31.9C103.98 31.43 104.9 31.25 105.81 31.09C106.28 31.01 106.76 30.97 107.23 30.88C107.82 30.76 108.41 30.87 109 30.9C109.66 30.94 110.31 31.01 110.96 31.1C111.86 31.22 112.75 31.41 113.61 31.7C114.47 31.99 115.17 32.53 115.88 33.04C116.31 33.34 116.73 33.64 117.22 33.84C117.61 34 117.89 34.3 118.18 34.59C118.54 34.97 118.89 35.36 119.24 35.74C119.36 35.87 119.51 35.99 119.62 36.13C120.29 37.02 120.97 37.9 121.6 38.82C121.88 39.23 122.05 39.71 122.24 40.17C122.43 40.63 122.56 41.12 122.74 41.58C122.95 42.12 123.05 42.67 123.09 43.24C123.15 44.03 123.23 44.82 123.3 45.57C123.29 46.34 123.23 47.06 123.02 47.77C122.99 47.88 122.94 47.99 122.93 48.1C122.86 48.83 122.7 49.53 122.48 50.23C122.41 50.45 122.32 50.65 122.25 50.87C122.21 51 122.16 51.13 122.14 51.26C122.07 51.66 122.04 52.07 121.95 52.47C121.87 52.82 121.73 53.16 121.59 53.49C121.4 53.97 121.24 54.47 120.91 54.89C120.77 55.07 120.65 55.26 120.52 55.45C120.45 55.54 120.37 55.62 120.32 55.72C119.72 56.8 118.94 57.74 118.2 58.72C118.15 58.79 118.09 58.86 118.02 58.92C117.61 59.25 117.23 59.6 116.87 59.98C116.58 60.29 116.17 60.48 115.8 60.7C115 61.17 114.2 61.65 113.37 62.08C112.77 62.4 112.14 62.65 111.52 62.94C111.38 63.01 111.23 63.08 111.08 63.13C110.78 63.23 110.48 63.34 110.18 63.42C109.85 63.51 109.51 63.53 109.18 63.63C108.31 63.89 107.43 63.8 106.55 63.69C106.48 63.68 106.41 63.67 106.35 63.66C105.43 63.53 104.5 63.44 103.59 63.27C102.65 63.1 101.73 62.84 100.88 62.39C100.28 62.07 99.68 61.75 99.1 61.39C98.76 61.17 98.46 60.89 98.15 60.62C97.58 60.12 97.08 59.57 96.6 58.99C96.47 58.83 96.38 58.65 96.29 58.47C95.8 57.5 95.49 56.68 95.01 55.71C94.97 55.63 94.83 55.3 94.86 55.26C94.82 54.93 94.77 54.79 94.71 54.54C94.6 54.03 94.4 53.55 94.36 53.02C94.35 52.68 94.23 52.37 94.17 52.06ZM90.25 102.42C90.33 102.84 90.08 103.4 89.7 103.57C89.66 103.59 89.61 103.6 89.57 103.6C89.23 103.62 88.89 103.64 88.58 103.8C88.51 103.84 88.41 103.83 88.44 103.82C87.5 103.72 86.7 103.64 85.89 103.56C85.76 103.55 85.63 103.57 85.49 103.57C85.42 103.57 85.35 103.6 85.29 103.58C84.61 103.35 83.9 103.4 83.21 103.33C82.96 103.31 82.72 103.31 82.47 103.3C82.38 103.3 82.27 103.32 82.21 103.28C81.78 103.01 81.29 103.06 80.82 103.05C80.63 103.05 80.46 103.04 80.29 102.95C79.9 102.76 79.5 102.63 79.05 102.66C78.88 102.67 78.68 102.62 78.52 102.55C77.73 102.16 76.86 102.11 76.03 101.92C75.94 101.9 75.85 101.89 75.77 101.86C75.27 101.65 74.74 101.51 74.2 101.44C73.96 101.41 73.74 101.26 73.57 101.07C73.25 100.7 73.33 100.3 73.5 99.92C73.59 99.73 73.78 99.56 73.95 99.42C74.13 99.27 74.35 99.24 74.58 99.36C74.96 99.56 75.36 99.73 75.75 99.89C75.96 99.97 76.18 100.06 76.4 100.07C76.73 100.08 77.01 100.19 77.31 100.3C77.65 100.42 78.01 100.47 78.37 100.52C78.82 100.58 79.27 100.58 79.72 100.63C80.01 100.66 80.31 100.63 80.56 100.84C80.61 100.88 80.69 100.9 80.75 100.9C81.46 100.9 82.13 101.12 82.83 101.21C83.4 101.29 83.96 101.19 84.52 101.2C84.72 101.2 84.93 101.19 85.13 101.22C85.76 101.3 86.38 101.41 87.01 101.46C87.48 101.5 87.96 101.47 88.43 101.43C88.64 101.41 88.83 101.4 89.04 101.44C89.26 101.47 89.52 101.4 89.68 101.6C89.92 101.83 90.18 102.06 90.25 102.42ZM62.81 78.24C62.31 78.24 61.81 78.25 61.31 78.22C60.26 78.17 59.22 78.3 58.18 78.36C58.13 78.36 58.09 78.38 58.04 78.38C57.01 78.29 56.01 78.56 54.99 78.65C54.47 78.7 53.95 78.74 53.43 78.79C53.16 78.82 52.89 78.85 52.62 78.89C51.81 78.99 51 79.05 50.19 79.03C49.51 79.02 48.82 79.08 48.15 79C47.33 78.9 46.66 79.05 45.84 78.95C45.48 78.91 45.32 79.08 45.32 79.42C45.32 79.72 45.21 80 45.18 80.29C45.12 80.74 45.11 81.19 45.08 81.65C45.07 81.93 45.15 82.19 45.27 82.44C45.51 82.9 45.65 83.4 45.8 83.9C45.92 84.29 46.01 84.74 46.43 84.99C46.54 85.06 46.64 85.18 46.69 85.3C46.86 85.68 47.27 85.86 47.44 86.24C47.76 86.38 47.81 86.68 48.09 86.86C48.86 87.37 49.73 87.36 50.59 87.21C50.93 87.15 51.28 86.96 51.57 86.75C52.2 86.27 52.97 86.01 53.39 85.3C53.4 85.28 53.42 85.33 53.43 85.31C53.63 84.82 54.17 84.37 54.51 83.98C54.84 83.59 55.02 83.23 55.37 82.88C55.45 82.8 55.62 82.78 55.75 82.78C56.63 82.73 57.52 82.69 58.4 82.63C58.97 82.59 59.53 82.54 60.1 82.48C60.8 82.41 61.49 82.33 62.19 82.28C62.36 82.27 62.55 82.31 62.72 82.38C63.03 82.51 63.16 82.86 63.04 83.18C62.6 84.27 62.19 85.38 61.69 86.45C61.29 87.29 60.8 88.08 60.18 88.79C59.97 89.03 59.77 89.28 59.56 89.52C58.88 90.29 58.04 90.89 57.24 91.51C56.83 91.83 56.42 92.16 55.94 92.37C55.67 92.49 55.39 92.58 55.13 92.73C54.47 93.11 53.75 93.3 53.04 93.54C52.43 93.75 51.83 93.91 51.19 93.96C50.58 94.01 49.98 94.14 49.36 94C49.03 93.93 48.68 93.97 48.34 93.98C47.27 93.99 46.69 93.58 45.66 93.23C45.49 93.17 45.31 93.13 45.13 93.09C43.83 92.78 42.69 92.15 41.57 91.44C40.85 90.98 40.24 90.41 39.59 89.89C39.05 89.46 38.68 88.88 38.32 88.3C38.05 87.86 37.83 87.39 37.6 86.92C37.51 86.74 37.49 86.53 37.43 86.33C37.27 85.81 37.15 85.29 37.11 84.74C37.02 83.54 36.88 82.34 36.95 81.07C36.96 80.52 36.95 79.91 36.99 79.3C37.01 78.99 37.1 78.68 37.17 78.37C37.28 77.91 37.39 77.45 37.51 76.99C37.65 76.42 37.78 75.84 37.96 75.28C38.13 74.73 38.35 74.07 38.66 73.6C39.02 73.05 39.33 72.51 39.75 72.01C40.03 71.68 40.3 71.35 40.58 71.02C41.04 70.49 41.4 69.97 41.86 69.44C41.96 69.22 42.08 69.11 42.25 68.87C42.73 68.39 43.06 68.06 43.55 67.58C43.97 67.17 44.5 66.79 44.97 66.44C45.19 66.28 45.5 66.16 45.74 66.03C46.28 65.75 46.83 65.47 47.37 65.19C47.53 65.11 47.69 65.01 47.87 64.97C48.31 64.87 48.75 64.73 49.16 64.55C49.28 64.5 49.43 64.51 49.56 64.48C49.91 64.4 50.4 64.38 50.75 64.3C50.86 64.27 50.97 64.22 51.08 64.21C51.96 64.1 52.84 64.14 53.72 64.13C54.08 64.13 54.44 64.18 54.8 64.22C55.3 64.27 55.79 64.32 56.29 64.38C57.33 64.51 58.14 64.89 59.13 65.23C59.26 65.27 59.39 65.33 59.52 65.37C60.5 65.65 61.25 66.37 61.89 67.14C61.99 67.26 62.09 67.39 62.21 67.49C62.84 68.07 63.2 68.84 63.65 69.55C63.88 69.91 63.97 70.35 64.12 70.75C64.22 71.05 64.33 71.35 64.38 71.65C64.43 71.94 64.63 71.97 64.64 72.26C64.67 72.81 64.72 73.35 64.72 73.9C64.73 74.54 64.66 75.17 64.48 75.78C64.4 76.08 64.37 76.4 64.32 76.71C64.29 76.87 64.29 77.03 64.24 77.18C64.05 77.88 63.56 78.24 62.81 78.24ZM62.94 106.35C63.05 106.09 63.08 105.83 63.1 105.55C63.12 105.35 63.14 105.14 63.21 104.95C63.47 104.24 63.63 103.51 63.77 102.78C63.81 102.58 63.85 102.38 63.9 102.18C64.07 101.45 64.27 100.73 64.41 99.99C64.5 99.55 64.5 99.09 64.63 98.65C64.87 97.87 64.95 97.05 65.11 96.25C65.2 95.78 65.25 95.31 65.31 94.83C65.35 94.52 65.39 94.2 65.43 93.89C65.57 92.83 65.72 91.78 65.86 90.72C65.86 90.7 65.86 90.67 65.87 90.65C66.1 89.45 66.34 88.25 66.57 87.04C66.68 86.46 66.77 85.88 66.87 85.3C66.96 84.76 67.06 84.23 67.15 83.69C67.17 83.58 67.17 83.46 67.21 83.35C67.54 82.45 67.72 81.52 67.94 80.59C68.19 79.48 68.52 78.39 68.81 77.3C69.09 76.24 69.22 75.16 69.33 74.08C69.41 73.27 69.55 72.47 69.77 71.68C69.91 71.18 69.97 70.66 70.04 70.14C70.07 69.95 70.11 69.79 70.28 69.68C70.35 69.63 70.45 69.54 70.44 69.48C70.42 69.11 70.72 69.02 70.95 68.94C71.32 68.8 71.66 68.57 72.1 68.62C72.31 68.65 72.54 68.52 72.77 68.46C73.25 68.62 73.7 68.9 74.25 68.87C74.38 68.86 74.51 68.94 74.64 68.98C75.01 69.09 75.38 69.19 75.75 69.3C75.84 69.32 75.94 69.33 76.01 69.38C76.46 69.68 76.99 69.69 77.5 69.77C78.28 69.9 79.07 70.03 79.85 70.19C80.47 70.32 81.08 70.49 81.7 70.62C82.52 70.8 83.33 71.06 84.07 71.46C84.91 71.91 85.7 72.45 86.42 73.08C86.83 73.43 87.17 73.87 87.52 74.29C87.95 74.82 88.36 75.36 88.77 75.91C89.07 76.31 89.28 76.76 89.5 77.21C89.83 77.89 89.84 78.62 89.81 79.34C89.76 81.03 89.38 82.66 88.77 84.24C88.72 84.37 88.67 84.5 88.65 84.63C88.59 84.92 88.58 85.22 88.48 85.49C88.39 85.74 88.2 85.94 88.16 86.23C88.14 86.39 87.98 86.53 87.89 86.69C87.51 87.38 87.18 88.1 86.58 88.64C86.51 88.7 86.46 88.78 86.42 88.86C86.08 89.52 85.52 89.99 84.95 90.44C84.7 90.64 84.48 90.87 84.24 91.07C83.86 91.39 83.48 91.71 83.02 91.91C82.46 92.15 81.88 92.37 81.33 92.64C80.52 93.04 79.67 93.25 78.79 93.35C78.28 93.41 77.76 93.34 77.24 93.33C77.08 93.33 76.92 93.33 76.77 93.34C76.32 93.38 75.87 93.44 75.41 93.46C75.21 93.47 75.14 93.41 74.94 93.37C74.45 93.27 73.97 93.13 73.42 93.2C73.13 93.73 73.01 94.25 72.96 94.8C72.91 95.41 72.84 96.02 72.77 96.63C72.68 97.35 72.44 98.07 72.36 98.79C72.3 99.4 72.22 100 72.18 100.61C72.15 101.08 71.98 101.54 71.86 102C71.8 102.22 71.7 102.43 71.66 102.65C71.41 103.78 71.15 104.91 70.95 106.05C70.88 106.44 70.73 106.73 70.47 106.99C70.36 107.1 70.21 107.19 70.13 107.32C69.86 107.8 69.4 107.81 68.95 107.82C68.59 107.83 68.22 107.76 67.87 107.79C67.18 107.85 66.51 107.77 65.83 107.67C65.16 107.57 64.5 107.38 63.84 107.24C63.66 107.2 63.48 107.19 63.3 107.17C63.02 107.14 62.94 107.08 62.9 106.8C62.89 106.66 62.89 106.48 62.94 106.35ZM50.52 143.58C50.52 143.36 50.5 143.15 50.51 142.93C50.57 141.96 50.55 140.99 50.51 140.02C50.46 138.79 50.45 138.17 50.45 136.94C50.45 136.12 50.55 135.29 50.51 134.47C50.49 133.96 50.46 133.44 50.57 132.95C50.71 132.25 50.65 131.55 50.74 130.86C50.82 130.19 50.94 129.52 51.01 128.85C51.06 128.4 51.09 127.94 51.09 127.48C51.1 125.13 51.1 122.78 51.12 120.43C51.13 119.39 51.16 118.35 51.18 117.31C51.18 117.12 51.15 116.93 51.15 116.73C51.15 116.64 51.15 116.53 51.18 116.45C51.47 115.67 51.55 114.24 51.64 113.42C51.7 112.87 51.83 112.31 51.81 111.76C51.79 111 51.88 110.26 51.94 109.51C52.02 108.47 52.12 107.44 52.19 106.4C52.22 105.94 52.2 105.48 52.21 105.02C52.21 104.9 52.6 103.52 52.73 102.94C52.9 102.21 53.26 101.67 53.88 101.31C54.14 101.16 54.4 101.01 54.66 100.88C54.91 100.76 55.17 100.7 55.46 100.75C55.62 100.77 55.78 100.76 55.94 100.74C56.94 100.63 58.14 100.7 59.14 100.7C59.49 100.7 59.83 100.8 60.12 100.96C60.4 101.11 60.64 101.33 60.95 101.42C61.03 101.44 61.11 101.59 61.13 101.7C61.16 101.84 61.16 101.99 61.13 102.13C61.05 102.68 60.99 103.24 60.86 103.78C60.73 104.33 60.7 104.88 60.68 105.44C60.59 107.4 60.47 109.36 60.44 111.32C60.42 112.29 60.24 113.87 60.44 114.82C60.47 114.96 60.45 115.11 60.43 115.25C60.26 116.6 60.29 118.24 60.33 119.59C60.35 120.49 60.4 121.38 60.44 122.27C60.45 122.42 60.43 122.56 60.45 122.71C60.47 122.82 60.51 122.97 60.58 123.01C60.65 123.04 60.82 122.98 60.87 122.9C61.18 122.46 61.59 122.16 62.05 121.96C62.49 121.76 62.76 121.37 63.11 121.06C64.48 119.85 65.92 118.49 67.55 117.71C68.41 117.3 69.29 117.04 70.21 116.85C70.97 116.7 71.72 116.51 72.5 116.52C72.91 116.53 73.32 116.53 73.72 116.61C74.59 116.79 75.45 117.02 76.28 117.37C76.81 117.6 77.26 117.97 77.68 118.38C78.2 118.89 78.66 119.46 79.17 119.98C79.49 120.3 79.75 120.67 79.94 121.08C80.18 121.6 80.39 122.14 80.61 122.67C80.7 122.89 80.74 123.14 80.85 123.35C81.12 123.9 81.23 124.5 81.31 125.09C81.46 126.14 81.6 127.2 81.55 128.27C81.51 129.16 81.54 130.06 81.54 130.96C81.55 130.96 81.55 130.96 81.56 130.96C81.56 132.2 81.57 133.43 81.55 134.67C81.54 135.23 81.48 135.78 81.43 136.33C81.36 137.13 81.27 137.31 81.19 138.1C81.15 138.48 81.09 138.87 81.04 139.25C80.88 140.37 80.73 141.5 80.54 142.62C80.39 143.55 80.44 144.49 80.32 145.42C80.28 145.71 80.19 145.99 80.12 146.26C80 146.7 79.98 147.1 79.89 147.55C79.82 147.89 79.71 148.08 79.71 148.51C79.71 148.62 79.61 148.96 79.69 149.08C79.67 149.55 79.68 149.42 79.51 149.6C79.2 149.72 78.93 149.99 78.55 149.88L75.8 150.04C75.47 150.07 75.13 149.93 74.84 149.71C74.45 149.41 74.08 149.65 73.67 149.39C73.42 149.23 73.34 148.93 73.35 148.63C73.35 148.46 73.4 148.3 73.42 148.13C73.45 147.91 73.5 147.7 73.52 147.48C73.6 146.32 73.68 145.16 73.76 144C73.79 143.54 73.82 143.08 73.83 142.62C73.86 141.72 73.89 140.83 74.08 139.95C74.15 139.62 74.16 139.28 74.18 138.94C74.25 138.15 74.31 137.97 74.37 137.17C74.4 136.76 74.56 136.35 74.59 135.94C74.63 135.46 74.49 134.98 74.54 134.5C74.57 134.24 74.65 133.97 74.64 133.71C74.63 132.86 74.74 132.02 74.89 131.18C75.01 130.44 74.91 129.66 74.73 128.94C74.51 128.03 74.27 127.12 73.79 126.31C73.73 126.21 73.68 126.1 73.64 125.99C73.34 125.13 72.53 124.18 71.78 123.88C71.07 123.59 70.54 123.46 69.79 123.75C69.49 123.87 69.18 123.95 68.88 124.05C68.73 124.1 68.59 124.17 68.45 124.26C67.95 124.58 67.44 124.89 66.94 125.21C66.46 125.52 65.93 125.78 65.49 126.13C65.05 126.48 64.53 126.65 64.11 127.01C63.54 127.48 62.91 127.86 62.41 128.43C62.35 128.5 62.28 128.58 62.2 128.61C61.59 128.82 61.18 129.32 60.74 129.76C60.45 130.05 60.27 130.41 60.25 130.84C60.23 131.25 60.18 131.66 60.15 132.07C60.06 133.4 59.97 134.73 59.87 136.05C59.79 137.11 59.67 137.55 59.59 138.61C59.53 139.38 59.51 140.15 59.47 140.93C59.47 141.03 59.46 141.12 59.45 141.22C59.34 142.21 59.21 143.19 59.11 144.18C59 145.19 58.91 146.2 59.1 147.21C59.11 147.26 59.09 147.31 59.11 147.35C59.16 147.51 59.21 147.66 59.26 147.82C59.05 148.07 59.07 148.47 58.78 148.67C58.65 148.76 58.52 148.88 58.45 149.03C58.25 149.44 57.93 149.49 57.55 149.5C56.62 149.53 55.69 149.59 54.76 149.65C54.58 149.66 54.4 149.71 54.22 149.74C53.82 149.81 53.42 149.88 53.01 149.93C52.93 149.94 52.83 149.9 52.75 149.88C52.31 149.74 51.88 149.61 51.45 149.47C51.32 149.43 51.19 149.38 51.08 149.3C50.97 149.22 50.84 149.12 50.81 149C50.71 148.66 50.64 148.3 50.58 147.94C50.54 147.68 50.53 147.41 50.5 147.15C50.48 146.96 50.42 146.76 50.45 146.57C50.52 146 50.46 145.42 50.54 144.84C50.58 144.46 50.52 144.02 50.52 143.58ZM14.7 134.64C14.79 134.58 14.87 134.48 14.91 134.38C15.24 133.66 15.91 133.35 16.58 133.08C17.12 132.85 17.68 132.67 18.24 132.48C18.81 132.28 19.43 132.18 20.03 132.08C20.63 131.99 21.09 132.29 21.41 132.78C21.57 133.02 21.71 133.28 21.78 133.58C21.88 134 22.06 134.39 22.33 134.74C22.75 135.28 23.17 135.81 23.57 136.36C23.9 136.82 24.21 137.29 24.53 137.77C24.89 138.3 25.3 138.77 25.85 139.11C26.24 139.35 26.61 139.62 26.95 139.92C27.56 140.46 28.3 140.65 29.06 140.81C30.22 141.06 31.4 141.07 32.59 141.08C33.04 141.08 33.42 140.87 33.83 140.74C34.06 140.66 34.29 140.53 34.48 140.38C34.68 140.21 34.89 140.12 35.15 140.08C35.32 140.06 35.49 139.96 35.63 139.85C36.24 139.35 36.88 138.87 37.48 138.35C37.93 137.96 38.36 137.5 38.63 136.93C38.79 136.6 38.96 136.29 39.15 135.98C39.47 135.43 39.43 134.79 39.57 134.2C39.62 133.99 39.57 133.75 39.55 133.52C39.52 133.16 39.45 132.8 39.41 132.45C39.36 132.08 39.17 131.72 38.98 131.38C38.75 130.97 38.47 130.57 38.18 130.2C38.02 129.99 37.79 129.82 37.59 129.64C37.54 129.6 37.46 129.58 37.42 129.53C36.95 128.9 36.21 128.66 35.6 128.24C34.99 127.81 34.34 127.43 33.71 127.03C33.21 126.71 32.74 126.34 32.22 126.09C31.58 125.79 31.03 125.35 30.4 125.04C29.77 124.73 29.14 124.41 28.52 124.08C27.98 123.79 27.43 123.52 26.98 123.08C26.8 122.91 26.54 122.83 26.36 122.67C25.89 122.28 25.41 121.89 25.01 121.42C24.77 121.14 24.52 120.88 24.25 120.63C23.58 120.01 23.02 119.29 22.56 118.5C22.02 117.58 21.58 116.59 21.31 115.56C21.13 114.84 21.02 114.08 21.03 113.33C21.04 112.45 21.21 111.57 21.48 110.72C21.57 110.44 21.66 110.16 21.74 109.87C21.88 109.34 22.06 108.83 22.28 108.33C22.49 107.85 22.72 107.39 23.1 107.01C23.34 106.77 23.54 106.49 23.75 106.22C24.36 105.41 25.15 104.79 25.89 104.12C26.29 103.76 26.74 103.44 27.16 103.09C27.37 102.92 27.57 102.74 27.75 102.53C27.89 102.37 28.07 102.29 28.25 102.19C28.49 102.06 28.74 101.94 28.94 101.76C29.21 101.51 29.52 101.33 29.82 101.12C30.15 100.89 30.52 100.79 30.89 100.71C32.27 100.43 33.66 100.24 35.07 100.17C35.75 100.13 36.43 100.16 37.11 100.21C38.09 100.28 39.03 100.55 39.89 101.06C40.57 101.47 41.24 101.9 41.99 102.17C42.09 102.21 42.18 102.29 42.27 102.36C43.07 102.89 43.83 103.46 44.54 104.1C45.15 104.64 45.72 105.23 46.35 105.75C46.81 106.14 46.65 106.59 46.39 106.95C46.22 107.19 45.99 107.39 45.75 107.56C44.83 108.24 44.03 109.04 43.23 109.85C42.94 110.14 42.64 110.42 42.34 110.7C42.26 110.78 42.16 110.84 42.07 110.9C41.93 111 41.78 111.03 41.62 110.98C41.5 110.94 41.15 110.41 41.02 110.38C40.77 110.31 40.58 110.17 40.41 109.97C40.09 109.6 39.71 109.33 39.27 109.12C38.51 108.77 37.77 108.34 36.96 108.11C36.28 107.92 35.58 107.83 34.89 107.73C34.58 107.68 34.25 107.71 33.94 107.71C32.69 107.69 31.59 108.13 30.56 108.82C30.14 109.1 29.74 109.4 29.45 109.82C28.92 110.58 28.36 111.32 28.22 112.28C28.17 112.66 28.22 113 28.37 113.33C28.56 113.77 28.75 114.2 28.97 114.63C29.33 115.32 29.81 115.92 30.45 116.38C30.6 116.48 30.77 116.58 30.87 116.72C31.22 117.25 31.72 117.59 32.24 117.93C32.62 118.17 33 118.42 33.38 118.67C34.06 119.12 34.73 119.59 35.42 120.03C35.84 120.3 36.26 120.57 36.76 120.69C36.93 120.73 37.09 120.84 37.25 120.92C38.15 121.36 39.06 121.77 39.93 122.25C41.07 122.87 42.14 123.62 43.11 124.47C43.75 125.04 44.34 125.67 44.73 126.47C44.92 126.85 45.19 127.2 45.39 127.58C45.67 128.1 45.93 128.63 46.06 129.21C46.06 129.23 46.07 129.25 46.08 129.27C46.35 129.88 46.46 130.53 46.43 131.2C46.43 131.25 46.43 131.29 46.44 131.34C46.6 132.03 46.62 132.72 46.53 133.42C46.44 134.14 46.35 134.86 46.16 135.56C45.9 136.5 45.64 137.44 45.38 138.38C45.34 138.51 45.3 138.64 45.25 138.77C45.03 139.29 44.83 139.83 44.57 140.33C44.15 141.13 43.69 141.91 43.24 142.7C43.03 143.07 42.82 143.45 42.55 143.79C42.37 144.01 42.18 144.18 41.94 144.32C41.64 144.49 41.4 144.71 41.16 144.97C40.78 145.39 40.35 145.77 39.93 146.14C39.75 146.3 39.51 146.41 39.3 146.54C39.07 146.68 38.84 146.82 38.6 146.95C38.36 147.08 38.12 147.22 37.87 147.3C36.89 147.58 35.91 147.87 34.91 148.07C33.6 148.33 32.27 148.48 30.92 148.34C30.26 148.27 29.62 148.13 29.01 147.86C28.63 147.69 28.23 147.59 27.83 147.54C27.26 147.47 26.72 147.3 26.19 147.11C26.08 147.07 25.97 147.05 25.86 147.02C24.8 146.75 23.81 146.32 22.87 145.75C22.34 145.43 21.85 145.08 21.38 144.69C21.01 144.38 20.67 144.05 20.32 143.73C20.05 143.49 19.77 143.26 19.49 143.02C19.4 142.95 19.32 142.87 19.25 142.78C18.75 142.16 18.12 141.67 17.56 141.12C17.21 140.78 16.95 140.33 16.67 139.92C16.25 139.3 15.85 138.67 15.45 138.04C15.38 137.93 15.32 137.8 15.28 137.67C15.19 137.36 15.07 137.09 14.76 136.91C14.51 136.76 14.5 136.44 14.45 136.18C14.41 135.91 14.42 135.64 14.4 135.36C14.39 135.08 14.44 134.82 14.7 134.64Z" fill="#414042"/>
<path d="M76.22 85.88C76.76 85.87 77.32 85.91 77.85 85.81C78.68 85.66 79.45 85.3 80.11 84.78C80.47 84.5 80.77 84.16 80.96 83.73C81.25 83.09 81.49 82.42 81.6 81.73C81.71 81.04 81.73 80.33 81.44 79.66C81.17 79.06 80.79 78.54 80.4 78.02C80.27 77.84 80.08 77.7 79.9 77.57C79.29 77.16 78.62 76.86 77.89 76.8C77.36 76.75 76.81 76.64 76.33 76.95C76 78.02 75.9 79.1 75.76 80.18C75.65 81.01 75.6 81.85 75.42 82.67C75.3 83.2 75.27 83.75 75.15 84.28C75.06 84.66 75.08 85.03 75.01 85.39C75.35 85.54 75.65 85.69 75.96 85.82C76.05 85.84 76.14 85.88 76.22 85.88Z" fill="#414042"/>
<path d="M102.13 51.97C102.44 52.56 102.84 53.08 103.26 53.59C103.48 53.85 103.75 54.07 104.03 54.25C104.92 54.85 105.95 55.06 106.99 55.18C107.73 55.27 108.48 55.25 109.23 55.15C110.19 55.02 111.04 54.72 111.72 54.02C112.11 53.61 112.47 53.17 112.84 52.74C113.23 52.29 113.48 51.76 113.7 51.22C113.91 50.69 114.1 50.16 114.3 49.63C114.51 49.08 114.72 48.53 114.77 47.93C114.81 47.39 114.88 46.85 114.94 46.3C114.92 45.58 114.79 45.06 114.75 44.34C114.72 43.91 114.64 43.48 114.55 43.06C114.46 42.63 114.11 41.52 113.39 41.23C113.03 41.08 112.56 40.75 112.22 40.57C111.53 40.22 110.81 39.96 110.07 39.73C109.36 39.51 108.63 39.48 107.91 39.67C107.12 39.88 106.33 40.11 105.64 40.57C105.41 40.72 105.15 40.83 104.95 41.01C104.73 41.21 104.52 41.41 104.23 41.52C104.13 41.56 104.05 41.66 103.99 41.74C103.78 42.04 103.6 42.35 103.38 42.64C102.74 43.46 102.36 44.4 102.03 45.38C101.68 46.39 101.49 47.44 101.26 48.48C101.16 48.94 101.17 49.38 101.28 49.83C101.48 50.57 101.77 51.28 102.13 51.97Z" fill="#414042"/>
<path d="M78.65 45.71C78.58 45.26 78.45 44.83 78.22 44.43C77.49 43.18 76.49 42.27 75.03 41.98C74.45 41.87 73.86 41.82 73.28 41.74C72.39 41.69 71.56 41.98 70.72 42.15C69.93 42.32 69.21 42.64 68.6 43.18C68.07 43.65 67.54 44.12 67.17 44.72C66.73 45.44 66.37 46.2 66.13 47.01C66.04 47.31 65.97 47.64 66 47.95C66.05 48.51 66.2 49.06 66.29 49.62C66.34 49.95 66.49 50.23 66.69 50.48C67.01 50.89 67.38 51.27 67.8 51.58C68.47 52.07 69.22 52.39 69.96 52.73C70.6 53.03 71.27 53.08 71.96 52.99C72.64 52.9 73.31 52.78 73.98 52.68C74.32 52.63 74.66 52.6 74.99 52.53C75.62 52.4 76.22 52.18 76.72 51.76C77.08 51.45 77.45 51.15 77.81 50.83C78.44 50.25 78.64 49.46 78.9 48.69C78.91 48.67 78.91 48.64 78.91 48.62C78.95 47.89 79.01 47.17 78.81 46.45C78.72 46.2 78.68 45.96 78.65 45.71Z" fill="#414042"/>
<path d="M56.77 72.32C56.63 72.15 56.48 71.84 56.31 71.69C55.87 71.32 55.38 71.07 54.8 70.96C54.31 70.87 53.84 70.65 53.35 70.61C52.21 70.51 50.34 70.63 49.3 71.21C48.92 71.42 48.5 71.7 48.18 71.99C47.93 72.22 47.51 72.86 47.42 72.93C47.27 73.18 47.26 73.49 47.36 73.79C48.09 73.68 48.78 73.55 49.48 73.49C50.13 73.44 50.79 73.47 51.45 73.47C52.83 73.47 54.97 73.46 56.35 73.46C56.64 73.46 56.94 73.45 57.23 73.44C57.37 73.43 57.47 73.26 57.38 73.14C57.19 72.85 56.98 72.58 56.77 72.32Z" fill="#414042"/>
<path d="M88.8899 134.02C88.9299 133.41 89.0099 132.8 89.0099 132.19C89.0199 131.44 88.9799 130.69 88.9499 129.95C88.9099 129 88.8499 128.04 88.8199 127.09C88.7899 126.05 88.7599 125 88.9099 123.96C88.9299 123.81 88.8999 123.64 88.8899 123.49C88.8799 123.31 88.8399 123.13 88.8499 122.95C88.8899 122.27 88.9199 121.59 88.9899 120.92C89.0499 120.4 89.1699 119.89 89.2399 119.37C89.2899 119.01 89.3099 118.65 89.3499 118.29C89.3899 117.95 89.4399 117.62 89.4799 117.28C89.6099 116.18 89.7399 115.07 89.8799 113.97C89.9699 113.25 90.0999 112.53 90.2099 111.82C90.2499 111.53 90.2799 111.23 90.2999 110.94C90.3699 110.15 90.4399 109.36 90.5199 108.57C90.5399 108.37 90.5699 108.16 90.5599 107.96C90.5399 107.29 90.6699 106.65 90.7899 106C90.9099 105.4 90.9099 104.79 90.9599 104.18C90.9799 103.93 90.9999 103.68 91.0699 103.44C91.3599 102.46 91.5699 101.46 91.7199 100.45C91.8299 99.67 91.7999 98.86 91.8399 98.07C91.8499 97.91 91.8399 97.75 91.8599 97.6C91.9699 96.75 92.1099 95.89 92.1799 95.04C92.3399 93.07 92.5099 91.11 92.8799 89.16C92.9699 88.67 92.9699 88.16 93.0399 87.67C93.1099 87.13 93.1999 86.59 93.2999 86.06C93.3599 85.73 93.4699 85.4 93.5499 85.07C93.5899 84.89 93.6199 84.71 93.6099 84.53C93.5299 83.42 93.7999 82.37 94.0599 81.32C94.2799 80.46 94.5699 79.62 94.6599 78.74C94.7899 77.47 95.0999 76.24 95.2099 74.97C95.2899 74.09 95.4799 73.22 95.5899 72.34C95.6399 71.94 95.6599 71.52 95.6499 71.12C95.6199 70.29 95.8599 69.5 96.0199 68.7C96.0299 68.66 96.0399 68.61 96.0599 68.57C96.4199 67.97 96.7099 67.32 97.1899 66.79C97.2399 66.74 97.2699 66.67 97.3299 66.64C97.7699 66.41 98.1999 66.16 98.6599 65.97C99.0999 65.79 99.5699 65.69 100.04 65.62C100.47 65.56 100.89 65.46 101.31 65.39C101.56 65.35 101.81 65.31 102.05 65.33C102.53 65.38 103 65.33 103.48 65.32C103.86 65.31 104.25 65.34 104.64 65.38C105.39 65.46 106.12 65.59 106.85 65.79C107.33 65.92 107.83 66 108.31 66.11C108.57 66.17 108.83 66.26 109.09 66.34C109.48 66.46 109.85 66.64 110.25 66.72C110.64 66.79 110.94 67.05 111.11 67.43C111.22 67.68 111.38 67.9 111.51 68.14C111.56 68.24 111.62 68.34 111.65 68.45C111.86 69.14 112.1 69.83 112.27 70.54C112.4 71.09 112.49 71.66 112.51 72.22C112.55 73.17 112.6 74.12 112.42 75.07C112.35 75.47 112.33 75.88 112.32 76.29C112.3 76.98 112.13 77.64 112.05 78.31C111.96 79.1 111.91 79.89 111.88 80.69C111.84 81.55 111.85 82.41 111.67 83.26C111.58 83.68 111.53 84.11 111.51 84.54C111.49 84.93 111.44 85.31 111.33 85.68C111.23 86.05 111.17 86.43 111.17 86.82C111.17 87.04 111.14 87.27 111.08 87.49C110.87 88.35 110.76 89.22 110.64 90.1C110.52 91.02 110.48 91.95 110.3 92.87C110.15 93.64 110.02 94.44 110.04 95.24C110.06 95.95 109.84 96.63 109.73 97.31C109.57 98.27 109.36 99.23 109.13 100.18C108.86 101.33 108.76 102.51 108.43 103.64C108.15 104.63 108.01 105.64 107.84 106.64C107.75 107.15 107.58 107.65 107.45 108.15C107.42 108.26 107.39 108.37 107.37 108.48C107.15 109.64 106.88 110.79 106.71 111.96C106.58 112.88 106.34 113.78 106.12 114.69C105.64 116.66 105.03 118.59 104.62 120.57C104.57 120.82 104.52 121.06 104.6 121.31C104.67 121.53 104.68 121.72 104.51 121.94C104.39 122.09 104.39 122.37 104.42 122.58C104.47 122.96 104.39 123.32 104.26 123.64C104.12 123.99 104.08 124.34 104.02 124.69C103.92 125.25 103.75 125.79 103.6 126.34C103.41 127.04 103.29 127.76 103.17 128.48C102.96 129.81 102.6 131.1 102.24 132.39C102.03 133.15 101.8 133.91 101.63 134.69C101.53 135.17 101.46 135.67 101.16 136.1C101.04 136.28 101.02 136.53 100.97 136.75C100.78 137.45 100.64 138.17 100.22 138.78C100.03 139.52 99.4999 140.09 99.1999 140.77C99.1499 140.89 99.0599 141 98.9799 141.11C98.6599 141.52 98.3199 141.92 98.0199 142.35C97.6899 142.8 97.2499 143.04 96.7199 143.15C96.4499 143.21 96.1799 143.24 95.9199 143.3C95.3299 143.45 94.7399 143.33 94.1599 143.25C93.5099 143.16 92.8699 142.99 92.2799 142.67C91.9799 142.51 91.6499 142.4 91.3699 142.21C90.5599 141.66 89.9599 140.94 89.6699 139.98C89.3799 138.99 89.1699 138 89.1799 136.96C89.1799 136.85 89.1799 136.73 89.1499 136.62C88.9599 135.75 88.9199 134.89 88.8899 134.02Z" fill="#F26522"/>
<path d="M92.0101 163.59C90.3001 163.67 88.8801 163.05 87.5501 162.13C86.4101 161.34 85.6701 160.23 85.1001 159.01C84.6001 157.94 84.1701 156.84 83.7601 155.73C83.5801 155.24 83.6101 154.68 83.7401 154.17C84.0201 153.04 84.5101 151.99 85.0601 150.97C85.2801 150.56 85.6101 150.2 85.9301 149.85C86.6101 149.12 87.2901 148.4 88.1101 147.81C88.3001 147.67 88.5001 147.53 88.6701 147.37C89.0201 147.04 89.4201 146.79 89.8601 146.61C90.5201 146.35 91.1301 145.98 91.8601 145.92C92.6101 145.86 93.3201 145.91 94.0401 146.12C95.4401 146.53 96.5801 147.33 97.5901 148.36C98.2201 149 98.7801 149.68 99.2901 150.42C99.8801 151.25 100.28 152.15 100.58 153.11C100.72 153.56 100.77 154.04 100.76 154.51C100.74 155.67 100.63 156.81 100.32 157.93C100.12 158.64 99.7801 159.28 99.4001 159.91C98.8901 160.76 98.1801 161.34 97.3201 161.78C96.5001 162.2 95.6901 162.64 94.8701 163.04C93.9501 163.5 92.9701 163.63 92.0101 163.59Z" fill="#F26522"/>
</g>
<defs>
<clipPath id="clip0_101_2">
<rect width="170.08" height="170.08" fill="white"/>
</clipPath>
</defs>
</svg>
